<svg xmlns="http://www.w3.org/2000/svg" width="39" height="37.928" viewBox="0 0 39 37.928">
  <path id="Icon_metro-cancel" data-name="Icon metro-cancel" d="M22.071,1.928c-10.77,0-19.5,8.49-19.5,18.964s8.73,18.964,19.5,18.964,19.5-8.49,19.5-18.964S32.84,1.928,22.071,1.928Zm0,34.372A15.631,15.631,0,0,1,6.227,20.892,15.631,15.631,0,0,1,22.071,5.484,15.631,15.631,0,0,1,37.915,20.892,15.631,15.631,0,0,1,22.071,36.3Zm6.094-24.89-6.094,5.926L15.977,11.41l-3.656,3.556,6.094,5.926-6.094,5.926,3.656,3.556,6.094-5.926,6.094,5.926,3.656-3.556-6.094-5.926,6.094-5.926Z" transform="translate(-2.571 -1.928)"/>
</svg>
